<?xml version="1.0" standalone="no"?>
<!DOCTYPE svg PUBLIC "-//W3C//DTD SVG 20010904//EN"
 "http://www.w3.org/TR/2001/REC-SVG-20010904/DTD/svg10.dtd">
<svg version="1.0" xmlns="http://www.w3.org/2000/svg"
 width="512.000000pt" height="512.000000pt" viewBox="0 0 512.000000 512.000000"
 preserveAspectRatio="xMidYMid meet">
<metadata>
Created by potrace 1.16, written by Peter Selinger 2001-2019
</metadata>
<g transform="translate(0.000000,512.000000) scale(0.100000,-0.100000)"
fill="#000000" stroke="none">
<path d="M1545 3527 c-555 -293 -1008 -536 -1006 -542 4 -12 2001 -1064 2020
-1065 8 0 272 131 587 290 316 160 576 290 578 290 3 0 6 -206 8 -457 3 -452
3 -459 26 -515 27 -67 97 -148 159 -184 56 -34 154 -64 204 -64 l39 0 0 110
c0 98 -2 110 -17 110 -33 0 -119 47 -146 79 -14 18 -31 49 -37 70 -6 25 -9
208 -8 510 l3 472 313 173 c173 95 314 177 315 182 1 7 -2008 1073 -2023 1073
-3 0 -459 -239 -1015 -532z"/>
<path d="M1592 1893 c4 -228 6 -253 27 -306 27 -70 110 -163 172 -194 24 -12
207 -92 407 -177 l363 -156 342 171 c435 218 532 281 593 384 25 44 25 44 24
281 0 131 -2 239 -3 240 -1 1 -213 -101 -472 -227 -258 -126 -476 -229 -484
-229 -8 0 -227 104 -488 230 -260 127 -476 230 -479 230 -3 0 -4 -111 -2 -247z"/>
</g>
</svg>
